<svg xmlns="http://www.w3.org/2000/svg" viewBox="0 0 841.84 798.47"><defs><style>.cls-1,.cls-3{fill:#36373b;}.cls-2{fill:#73f467;}.cls-3,.cls-7{font-size:231.89px;font-family:VarelaRound-Regular, Varela Round;}.cls-4{letter-spacing:0em;}.cls-5{letter-spacing:0em;}.cls-6,.cls-7{fill:#fff;}</style></defs><title>vstv-logo-v2.0_1</title><g id="Layer_2" data-name="Layer 2"><g id="Layer_1-2" data-name="Layer 1"><path class="cls-1" d="M330.55,128.13,115.66,4.06a30,30,0,0,0-45,26V278.18a30,30,0,0,0,45,26L330.55,180.09A30,30,0,0,0,330.55,128.13Z"/><path class="cls-2" d="M262,128.13,47.15,4.06a30,30,0,0,0-45,26V278.18a30,30,0,0,0,45,26L262,180.09A30,30,0,0,0,262,128.13Z"/><text class="cls-3" transform="translate(398.24 216.6)">v<tspan class="cls-4" x="122.9" y="0">s</tspan><tspan class="cls-5" x="233.28" y="0">t</tspan><tspan x="320.7" y="0">v</tspan></text><path class="cls-6" d="M328.4,618.37,113.51,494.31a30,30,0,0,0-45,26V768.42a30,30,0,0,0,45,26L328.4,670.34A30,30,0,0,0,328.4,618.37Z"/><path class="cls-2" d="M259.89,618.37,45,494.31a30,30,0,0,0-45,26V768.42a30,30,0,0,0,45,26L259.89,670.34A30,30,0,0,0,259.89,618.37Z"/><text class="cls-7" transform="translate(396.09 706.84)">v<tspan class="cls-4" x="122.9" y="0">s</tspan><tspan class="cls-5" x="233.28" y="0">t</tspan><tspan x="320.7" y="0">v</tspan></text></g></g></svg>